<?xml version="1.0" encoding="utf-8"?>
<!-- Generator: Adobe Illustrator 25.4.1, SVG Export Plug-In . SVG Version: 6.00 Build 0)  -->
<svg version="1.1" id="Layer_1" xmlns="http://www.w3.org/2000/svg" xmlns:xlink="http://www.w3.org/1999/xlink" x="0px" y="0px"
	 viewBox="0 0 1000 500" style="enable-background:new 0 0 1000 500;" xml:space="preserve">
<style type="text/css">
	.st0{opacity:0.35;fill:none;stroke:#BCBCBC;enable-background:new    ;}
	.st1{fill:none;}
	.st2{font-family:'ArialMT';}
	.st3{font-size:12px;}
	.st4{fill:none;stroke:#FF5037;stroke-width:2.25;}
	.st5{fill:none;stroke:#004969;stroke-width:2.25;}
	.st6{display:none;}
	.st7{display:inline;fill:none;}
</style>
<g transform="translate(35,15)">
	<g transform="translate(0,0)">
		<g transform="translate(0,450)">
			<line class="st0" x1="0" y1="0" x2="950" y2="0"/>
		</g>
		<g transform="translate(0,375)">
			<text transform="matrix(1 0 0 1 -22.3477 4.2)" class="st1 st2 st3">$2</text>
			<line class="st0" x1="0" y1="0" x2="950" y2="0"/>
		</g>
		<g transform="translate(0,300)">
			<text transform="matrix(1 0 0 1 -22.3477 4.2)" class="st1 st2 st3">$4</text>
			<line class="st0" x1="0" y1="0" x2="950" y2="0"/>
		</g>
		<g transform="translate(0,225)">
			<text transform="matrix(1 0 0 1 -22.3477 4.2)" class="st1 st2 st3">$6</text>
			<line class="st0" x1="0" y1="0" x2="950" y2="0"/>
		</g>
		<g transform="translate(0,150)">
			<text transform="matrix(1 0 0 1 -22.3477 4.2)" class="st1 st2 st3">$8</text>
			<line class="st0" x1="0" y1="0" x2="950" y2="0"/>
		</g>
		<g transform="translate(0,75)">
			<text transform="matrix(1 0 0 1 -29.0215 4.2)" class="st1 st2 st3">$10</text>
			<line class="st0" x1="0" y1="0" x2="950" y2="0"/>
		</g>
		<g transform="translate(0,0)">
			<text transform="matrix(1 0 0 1 -29.0215 4.2)" class="st1 st2 st3">$12</text>
			<line class="st0" x1="0" y1="0" x2="950" y2="0"/>
		</g>
	</g>
	<g transform="translate(0,450)">
		<g transform="translate(23.75,0)">
			<text transform="matrix(1 0 0 1 -13.3477 20.52)" class="st1 st2 st3">1940</text>
		</g>
		<g transform="translate(142.5,0)">
			<text transform="matrix(1 0 0 1 -13.3477 20.52)" class="st1 st2 st3">1950</text>
		</g>
		<g transform="translate(261.25,0)">
			<text transform="matrix(1 0 0 1 -13.3477 20.52)" class="st1 st2 st3">1960</text>
		</g>
		<g transform="translate(380,0)">
			<text transform="matrix(1 0 0 1 -13.3477 20.52)" class="st1 st2 st3">1970</text>
		</g>
		<g transform="translate(498.75,0)">
			<text transform="matrix(1 0 0 1 -13.3477 20.52)" class="st1 st2 st3">1980</text>
		</g>
		<g transform="translate(617.5,0)">
			<text transform="matrix(1 0 0 1 -13.3477 20.52)" class="st1 st2 st3">1990</text>
		</g>
		<g transform="translate(736.25,0)">
			<text transform="matrix(1 0 0 1 -13.3477 20.52)" class="st1 st2 st3">2000</text>
		</g>
		<g transform="translate(855,0)">
			<text transform="matrix(1 0 0 1 -13.3477 20.52)" class="st1 st2 st3">2010</text>
		</g>
		<g transform="translate(950,0)">
			<text transform="matrix(1 0 0 1 -13.3477 20.52)" class="st1 st2 st3">2018</text>
		</g>
	</g>
	<g>
		<path id="adjusted" class="st4" d="M0,283.1c4-18.2,7.9-36.4,11.9-36.4s7.9,0.5,11.9,1.5s7.9,5,11.9,9.8s7.9,13.9,11.9,18.8
			s7.9,8.4,11.9,10.1s7.9,2.6,11.9,2.6s7.9-48.8,11.9-48.8s7.9,9.4,11.9,16.1s7.9,18.2,11.9,24.4s7.9,12.4,11.9,12.4
			s7.9-0.6,11.9-1.9c4-1.2,7.9-134.6,11.9-134.6s7.9,18.1,11.9,21.4s7.9,3.7,11.9,4.9s7.9,1.6,11.9,2.2s7.9,1.9,11.9,1.9
			s7.9-0.4,11.9-1.1s7.9-82.5,11.9-82.5s7.9,7.5,11.9,10.9s7.9,7.9,11.9,9.4s7.9,0.9,11.9,2.2s7.9,5.6,11.9,5.6s7.9-44.2,11.9-44.2
			s7.9,3.8,11.9,3.8s7.9-26.2,11.9-26.2s7.9,3,11.9,4.9s7.9,3.6,11.9,6.4s7.9,10.1,11.9,10.1s7.9-19.9,11.9-31.5s7.9-38.2,11.9-38.2
			s7.9,15,11.9,22.5S376,55.4,380,61.9s7.9,11.5,11.9,16.1s7.9,6.2,11.9,11.6s7.9,11.9,11.9,21s7.9,33.8,11.9,33.8
			s7.9-53.1,11.9-61.9s7.9-13.1,11.9-13.1s7.9,15.2,11.9,23.2s7.9,25.1,11.9,25.1s7.9-43.9,11.9-43.9s7.9,16.9,11.9,21.8
			s7.9,2.9,11.9,7.5c4,4.6,7.9,14.9,11.9,19.9s7.9,6.2,11.9,10.1s7.9,9.2,11.9,13.1s7.9,7.9,11.9,10.5s7.9,2.7,11.9,5.2
			s7.9,6.6,11.9,10.1s7.9,7.3,11.9,11.2s7.9,12.4,11.9,12.4s7.9-12.9,11.9-19.5s7.9-20.2,11.9-20.2s7.9,5.8,11.9,8.6
			s7.9,5.7,11.9,8.2s7.9,4.7,11.9,7.1s7.9,7.5,11.9,7.5s7.9-15.9,11.9-22.5s7.9-17.2,11.9-17.2s7.9,3,11.9,4.9s7.9,3.8,11.9,6.4
			s7.9,6.5,11.9,9.4s7.9,5.9,11.9,7.9s7.9,2.4,11.9,4.1s7.9,3.9,11.9,6s7.9,4.2,11.9,6.8s7.9,5.9,11.9,8.6s7.9,7.9,11.9,7.9
			s7.9-17.4,11.9-25.1s7.9-12.2,11.9-21s7.9-31.9,11.9-31.9s7.9,2.8,11.9,5.2s7.9,7.1,11.9,9.8s7.9,4.2,11.9,6s7.9,3,11.9,4.5
			s7.9,4.2,11.9,4.5s7.9,0.1,11.9,0.4s7.9,1.8,11.9,3.4s7.9,3.9,11.9,6s7.9,4.4,11.9,6.8"/>
		<path id="unadjusted" class="st5" d="M0,440.6c4-0.9,7.9-1.9,11.9-1.9s7.9,0,11.9,0s7.9,0,11.9,0s7.9,0,11.9,0s7.9,0,11.9,0
			s7.9,0,11.9,0s7.9-3.8,11.9-3.8s7.9,0,11.9,0s7.9,0,11.9,0s7.9,0,11.9,0s7.9,0,11.9,0c4,0,7.9-13.1,11.9-13.1s7.9,0,11.9,0
			s7.9,0,11.9,0s7.9,0,11.9,0s7.9,0,11.9,0s7.9,0,11.9,0s7.9-9.4,11.9-9.4s7.9,0,11.9,0s7.9,0,11.9,0s7.9,0,11.9,0s7.9,0,11.9,0
			s7.9-5.6,11.9-5.6s7.9,0,11.9,0s7.9-3.8,11.9-3.8s7.9,0,11.9,0s7.9,0,11.9,0s7.9,0,11.9,0s7.9-3.4,11.9-5.6s7.9-7.5,11.9-7.5
			s7.9,0,11.9,0s7.9,0,11.9,0s7.9,0,11.9,0s7.9,0,11.9,0s7.9,0,11.9,0s7.9,0,11.9,0s7.9-14.4,11.9-18.8s7.9-7.5,11.9-7.5
			s7.9,0,11.9,0s7.9,0,11.9,0s7.9-17.5,11.9-22.5s7.9-4.7,11.9-7.5s7.9-9.4,11.9-9.4c4,0,7.9,0,11.9,0s7.9,0,11.9,0s7.9,0,11.9,0
			s7.9,0,11.9,0s7.9,0,11.9,0s7.9,0,11.9,0s7.9,0,11.9,0s7.9,0,11.9,0s7.9-11.2,11.9-16.9s7.9-16.9,11.9-16.9s7.9,0,11.9,0
			s7.9,0,11.9,0s7.9,0,11.9,0s7.9,0,11.9,0s7.9-13.1,11.9-18.8s7.9-15,11.9-15s7.9,0,11.9,0s7.9,0,11.9,0s7.9,0,11.9,0s7.9,0,11.9,0
			s7.9,0,11.9,0s7.9,0,11.9,0s7.9,0,11.9,0s7.9,0,11.9,0s7.9,0,11.9,0s7.9-17.5,11.9-26.2s7.9-17.5,11.9-26.2s7.9-26.2,11.9-26.2
			s7.9,0,11.9,0s7.9,0,11.9,0s7.9,0,11.9,0s7.9,0,11.9,0s7.9,0,11.9,0s7.9,0,11.9,0s7.9,0,11.9,0s7.9,0,11.9,0s7.9,0,11.9,0"/>
	</g>
	<g class="st6">
		<line class="st7" x1="-23013.8" y1="0" x2="-23013.8" y2="0"/>
		<circle class="st7" cx="-23013.8" cy="0" r="5"/>
		<circle class="st7" cx="-23013.8" cy="0" r="5"/>
	</g>
	<g>
		<text transform="matrix(1 0 0 1 142.5 56.25)" class="st1 st2 st3">Inflation adjusted wage</text>
		<text transform="matrix(1 0 0 1 142.5 56.25)" class="st1 st2 st3">Inflation adjusted wage</text>
		<text transform="matrix(1 0 0 1 142.5 393.75)" class="st1 st2 st3">Unadjusted wage</text>
		<text transform="matrix(1 0 0 1 142.5 393.75)" class="st1 st2 st3">Unadjusted wage</text>
	</g>
	<rect class="st1" width="950" height="450"/>
</g>
</svg>
