<svg width="339.5" height="250" id="S"><g transform="translate(30,10)"><defs><linearGradient id="grad1" x1="0%" x2="100%" y1="100%" y2="100%"><stop offset="0%" style="stop-color:rgb(255,255,255);stop-opacity:1"></stop><stop offset="100%" style="stop-color:rgb(255,255,255);stop-opacity:1"></stop></linearGradient><clipPath id="clip-path-S"><path d="M0,185.42086198084746L3.7162761241291955,185.42038199881355L7.432552248258391,185.40549445135593L11.148828372387587,183.1314494361017L14.865104496516782,181.7994757659322L18.58138062064598,181.43241917322035L22.297656744775175,181.38363471118643L26.01393286890437,180.70999335864406L29.730208993033564,180.70949734271187L33.44648511716276,180.62735869169492L37.16276124129196,174.7335560901695L40.87903736542115,172.58168868762712L44.59531348955035,172.45268384101695L48.311589613679544,172.31571516847458L52.02786573780874,172.16558324847458L55.74414186193794,172.16510257406782L59.46041798606713,170.78159500728813L63.17669411019633,165.1582415179661L66.89297023432552,163.2302408101695L70.60924635845471,161.82264268288137L74.32552248258392,161.27346727186443L78.0417986067131,161.22494388542373L81.7580747308423,161.22441939474578L85.4743508549715,160.87871528288136L89.1906269791007,154.53426153779662L92.9069031032299,151.0310250381356L96.62317922735909,149.52441527118646L100.33945535148828,147.27280828271188L104.05573147561748,147.12992443542373L107.77200759974667,147.098830020339L111.48828372387588,145.82922741288138L115.20455984800506,139.5043689718644L118.92083597213426,130.93022795474576L122.63711209626345,128.50715178305086L126.35338822039266,126.57188640745763L130.06966434452187,125.73992273542373L133.78594046865103,125.71111675118645L137.50221659278023,125.42241562576272L141.21849271690942,113.62554270559323L144.93476884103865,109.83013865372884L148.65104496516784,109.04756266084749L152.36732108929704,107.6300764066102L156.0835972134262,106.91037017440681L159.7998733375554,106.8152091483051L163.5161494616846,105.9885113583051L167.23242558581381,93.35643644338984L170.948701709943,90.57680868830509L174.6649778340722,86.81526145898306L178.3812539582014,85.34729227915253L182.09753008233056,83.6164018877966L185.8138062064598,83.34208996169494L189.53008233058898,81.57364595762712L193.24635845471818,70.31867523169493L196.96263457884737,67.87598474118641L200.67891070297657,65.20936996508473L204.39518682710576,63.06442911915252L208.11146295123496,60.33949474033898L211.82773907536415,60.33546390576271L215.54401519949334,57.94725602593218L219.26029132362254,37.56300228661016L222.97656744775176,34.66771555118643L226.69284357188096,32.14054661932201L230.40911969601012,31.525457492203373L234.12539582013932,30.85291970186438L237.8416719442685,30.758350676440642L241.7127929069031,30.260241985254197L241.7127929069031,21.637899228983002L237.8416719442685,21.67896303372879L234.12539582013932,22.033470360677967L230.40911969601012,23.07319982203387L226.69284357188096,24.81202211728811L222.97656744775176,27.56889643694913L219.26029132362254,31.91801995762711L215.54401519949334,51.63807918932201L211.82773907536415,54.08273518067796L208.11146295123496,54.13746081423727L204.39518682710576,55.916765321016925L200.67891070297657,60.46611292661018L196.96263457884737,65.61148638915253L193.24635845471818,69.29576318694916L189.53008233058898,86.87515207762712L185.8138062064598,88.71247993898305L182.09753008233056,88.79458212016951L178.3812539582014,89.36197647813562L174.6649778340722,91.18520214694918L170.948701709943,92.29153927152542L167.23242558581381,96.5490666264407L163.5161494616846,113.21137163966104L159.7998733375554,115.07070897813561L156.0835972134262,115.25610273474577L152.36732108929704,117.11116108491527L148.65104496516784,119.75086281694917L144.93476884103865,120.2369396562712L141.21849271690942,124.00665888254238L137.50221659278023,137.9706891088136L133.78594046865103,138.20768304033902L130.06966434452187,138.24758569932206L126.35338822039266,138.53347727762713L122.63711209626345,138.58066904152543L118.92083597213426,139.49232550271188L115.20455984800506,142.35498188491528L111.48828372387588,153.6526990201695L107.77200759974667,154.39767267186443L104.05573147561748,154.41678118677967L100.33945535148828,154.85331937322036L96.62317922735909,155.47741472644068L92.9069031032299,155.97470544101697L89.1906269791007,157.42575836983053L85.4743508549715,165.25304710169493L81.7580747308423,166.2510387223729L78.0417986067131,166.26979507457628L74.32552248258392,166.42846793152543L70.60924635845471,167.05329722186443L66.89297023432552,167.35321905881358L63.17669411019633,168.7135721823729L59.46041798606713,172.55943491949154L55.74414186193794,172.57316422186443L52.02786573780874,172.91364091847458L48.311589613679544,173.16356261050848L44.59531348955035,173.58923539661018L40.87903736542115,174.36565010898306L37.16276124129196,176.39306092067798L33.44648511716276,179.7498694838983L29.730208993033564,179.81591419694917L26.01393286890437,179.82920096372882L22.297656744775175,179.8665025527119L18.58138062064598,180.07893177949154L14.865104496516782,180.7912793123729L11.148828372387587,183.34120229186442L7.432552248258391,183.88062587135593L3.7162761241291955,183.9568535018644L0,183.95748338627118Z"></path></clipPath><clipPath id="rect-clip-path-S"><rect width="244.5" height="216"></rect></clipPath></defs><g class="axis x monthly" transform="translate(0, 220)" fill="none" font-size="10" font-family="sans-serif" text-anchor="middle" style="opacity: 1;"><path class="domain" stroke="currentColor" d="M0.5,6V0.5H245V6"></path><g class="tick" opacity="1" transform="translate(0.5,0)"><line stroke="currentColor" y2="6"></line><text fill="currentColor" y="9" dy="0.71em">Sept.</text></g><g class="tick" opacity="1" transform="translate(111.98828372387588,0)"><line stroke="currentColor" y2="6"></line><text fill="currentColor" y="9" dy="0.71em">Oct.</text></g><g class="tick" opacity="1" transform="translate(227.19284357188096,0)"><line stroke="currentColor" y2="6"></line><text fill="currentColor" y="9" dy="0.71em">Nov.</text></g></g><g class="axis x daily" transform="translate(0, 220)" fill="none" font-size="10" font-family="sans-serif" text-anchor="middle"><path class="domain" stroke="currentColor" d="M0.5,6V0.5H245V6"></path></g><g class="axis y" transform="translate(244.5, 0)" fill="none" font-size="10" font-family="sans-serif" text-anchor="end"><path class="domain" stroke="currentColor" d="M-274.5,215.5H0.5V0.5H-274.5"></path><g class="tick" opacity="1" transform="translate(0,215.5)"><line stroke="currentColor" x2="-274.5"></line><text fill="currentColor" x="-277.5" dy="0.32em">0</text></g><g class="tick" opacity="1" transform="translate(0,142.6186440677966)"><line stroke="currentColor" x2="-274.5"></line><text fill="currentColor" x="-277.5" dy="0.32em">100M</text></g><g class="tick" opacity="1" transform="translate(0,69.73728813559322)"><line stroke="currentColor" x2="-274.5"></line><text fill="currentColor" x="-277.5" dy="0.32em">200M</text></g></g><line class="last-week" x2="218.48606713109564" x1="218.48606713109564" y2="0" y1="215"></line><g clip-path="url(#rect-clip-path-S)"><g clip-path="url(#clip-path-S)"><rect class="lead-fill dem" width="11.148828372387587" height="215" transform="translate(-3.7162761241291955,0)"></rect><rect class="lead-fill rep" width="3.7162761241291946" height="215" transform="translate(7.432552248258391,0)"></rect><rect class="lead-fill dem" width="22.29765674477518" height="215" transform="translate(11.148828372387587,0)"></rect><rect class="lead-fill rep" width="156.08359721342623" height="215" transform="translate(33.44648511716276,0)"></rect><rect class="lead-fill dem" width="52.18271057631415" height="215" transform="translate(189.53008233058898,0)"></rect><g class="axis x weekly" fill="none" font-size="10" font-family="sans-serif" text-anchor="middle"><path class="domain" stroke="currentColor" d="M0.5,215V0.5H245V215"></path><g class="tick" opacity="1" transform="translate(4.2162761241291955,0)"><line stroke="currentColor" y2="215"></line><text fill="currentColor" y="218" dy="0.71em">Sept. 2</text></g><g class="tick" opacity="1" transform="translate(30.230208993033564,0)"><line stroke="currentColor" y2="215"></line><text fill="currentColor" y="218" dy="0.71em">Sept. 9</text></g><g class="tick" opacity="1" transform="translate(56.24414186193794,0)"><line stroke="currentColor" y2="215"></line><text fill="currentColor" y="218" dy="0.71em">Sept. 16</text></g><g class="tick" opacity="1" transform="translate(82.2580747308423,0)"><line stroke="currentColor" y2="215"></line><text fill="currentColor" y="218" dy="0.71em">Sept. 23</text></g><g class="tick" opacity="1" transform="translate(108.27200759974667,0)"><line stroke="currentColor" y2="215"></line><text fill="currentColor" y="218" dy="0.71em">Sept. 30</text></g><g class="tick" opacity="1" transform="translate(134.28594046865103,0)"><line stroke="currentColor" y2="215"></line><text fill="currentColor" y="218" dy="0.71em">Oct. 7</text></g><g class="tick" opacity="1" transform="translate(160.2998733375554,0)"><line stroke="currentColor" y2="215"></line><text fill="currentColor" y="218" dy="0.71em">Oct. 14</text></g><g class="tick" opacity="1" transform="translate(186.3138062064598,0)"><line stroke="currentColor" y2="215"></line><text fill="currentColor" y="218" dy="0.71em">Oct. 21</text></g><g class="tick" opacity="1" transform="translate(212.32773907536415,0)"><line stroke="currentColor" y2="215"></line><text fill="currentColor" y="218" dy="0.71em">Oct. 28</text></g><g class="tick" opacity="1" transform="translate(238.3416719442685,0)"><line stroke="currentColor" y2="215"></line><text fill="currentColor" y="218" dy="0.71em">Nov. 4</text></g></g></g><path class="rep-cumulative light" d="M0,185.42086198084746L3.7162761241291955,185.42038199881355L7.432552248258391,185.40549445135593L11.148828372387587,183.1314494361017L14.865104496516782,181.7994757659322L18.58138062064598,181.43241917322035L22.297656744775175,181.38363471118643L26.01393286890437,180.70999335864406L29.730208993033564,180.70949734271187L33.44648511716276,180.62735869169492L37.16276124129196,174.7335560901695L40.87903736542115,172.58168868762712L44.59531348955035,172.45268384101695L48.311589613679544,172.31571516847458L52.02786573780874,172.16558324847458L55.74414186193794,172.16510257406782L59.46041798606713,170.78159500728813L63.17669411019633,165.1582415179661L66.89297023432552,163.2302408101695L70.60924635845471,161.82264268288137L74.32552248258392,161.27346727186443L78.0417986067131,161.22494388542373L81.7580747308423,161.22441939474578L85.4743508549715,160.87871528288136L89.1906269791007,154.53426153779662L92.9069031032299,151.0310250381356L96.62317922735909,149.52441527118646L100.33945535148828,147.27280828271188L104.05573147561748,147.12992443542373L107.77200759974667,147.098830020339L111.48828372387588,145.82922741288138L115.20455984800506,139.5043689718644L118.92083597213426,130.93022795474576L122.63711209626345,128.50715178305086L126.35338822039266,126.57188640745763L130.06966434452187,125.73992273542373L133.78594046865103,125.71111675118645L137.50221659278023,125.42241562576272L141.21849271690942,113.62554270559323L144.93476884103865,109.83013865372884L148.65104496516784,109.04756266084749L152.36732108929704,107.6300764066102L156.0835972134262,106.91037017440681L159.7998733375554,106.8152091483051L163.5161494616846,105.9885113583051L167.23242558581381,93.35643644338984L170.948701709943,90.57680868830509L174.6649778340722,86.81526145898306L178.3812539582014,85.34729227915253L182.09753008233056,83.6164018877966L185.8138062064598,83.34208996169494L189.53008233058898,81.57364595762712L193.24635845471818,70.31867523169493L196.96263457884737,67.87598474118641L200.67891070297657,65.20936996508473L204.39518682710576,63.06442911915252L208.11146295123496,60.33949474033898L211.82773907536415,60.33546390576271L215.54401519949334,57.94725602593218L219.26029132362254,37.56300228661016L222.97656744775176,34.66771555118643L226.69284357188096,32.14054661932201L230.40911969601012,31.525457492203373L234.12539582013932,30.85291970186438L237.8416719442685,30.758350676440642L241.7127929069031,30.260241985254197"></path><path class="dem-cumulative light" d="M0,183.95748338627118L3.7162761241291955,183.9568535018644L7.432552248258391,183.88062587135593L11.148828372387587,183.34120229186442L14.865104496516782,180.7912793123729L18.58138062064598,180.07893177949154L22.297656744775175,179.8665025527119L26.01393286890437,179.82920096372882L29.730208993033564,179.81591419694917L33.44648511716276,179.7498694838983L37.16276124129196,176.39306092067798L40.87903736542115,174.36565010898306L44.59531348955035,173.58923539661018L48.311589613679544,173.16356261050848L52.02786573780874,172.91364091847458L55.74414186193794,172.57316422186443L59.46041798606713,172.55943491949154L63.17669411019633,168.7135721823729L66.89297023432552,167.35321905881358L70.60924635845471,167.05329722186443L74.32552248258392,166.42846793152543L78.0417986067131,166.26979507457628L81.7580747308423,166.2510387223729L85.4743508549715,165.25304710169493L89.1906269791007,157.42575836983053L92.9069031032299,155.97470544101697L96.62317922735909,155.47741472644068L100.33945535148828,154.85331937322036L104.05573147561748,154.41678118677967L107.77200759974667,154.39767267186443L111.48828372387588,153.6526990201695L115.20455984800506,142.35498188491528L118.92083597213426,139.49232550271188L122.63711209626345,138.58066904152543L126.35338822039266,138.53347727762713L130.06966434452187,138.24758569932206L133.78594046865103,138.20768304033902L137.50221659278023,137.9706891088136L141.21849271690942,124.00665888254238L144.93476884103865,120.2369396562712L148.65104496516784,119.75086281694917L152.36732108929704,117.11116108491527L156.0835972134262,115.25610273474577L159.7998733375554,115.07070897813561L163.5161494616846,113.21137163966104L167.23242558581381,96.5490666264407L170.948701709943,92.29153927152542L174.6649778340722,91.18520214694918L178.3812539582014,89.36197647813562L182.09753008233056,88.79458212016951L185.8138062064598,88.71247993898305L189.53008233058898,86.87515207762712L193.24635845471818,69.29576318694916L196.96263457884737,65.61148638915253L200.67891070297657,60.46611292661018L204.39518682710576,55.916765321016925L208.11146295123496,54.13746081423727L211.82773907536415,54.08273518067796L215.54401519949334,51.63807918932201L219.26029132362254,31.91801995762711L222.97656744775176,27.56889643694913L226.69284357188096,24.81202211728811L230.40911969601012,23.07319982203387L234.12539582013932,22.033470360677967L237.8416719442685,21.67896303372879L241.7127929069031,21.637899228983002"></path><path class="rep-cumulative" d="M0,185.42086198084746L3.7162761241291955,185.42038199881355L7.432552248258391,185.40549445135593L11.148828372387587,183.1314494361017L14.865104496516782,181.7994757659322L18.58138062064598,181.43241917322035L22.297656744775175,181.38363471118643L26.01393286890437,180.70999335864406L29.730208993033564,180.70949734271187L33.44648511716276,180.62735869169492L37.16276124129196,174.7335560901695L40.87903736542115,172.58168868762712L44.59531348955035,172.45268384101695L48.311589613679544,172.31571516847458L52.02786573780874,172.16558324847458L55.74414186193794,172.16510257406782L59.46041798606713,170.78159500728813L63.17669411019633,165.1582415179661L66.89297023432552,163.2302408101695L70.60924635845471,161.82264268288137L74.32552248258392,161.27346727186443L78.0417986067131,161.22494388542373L81.7580747308423,161.22441939474578L85.4743508549715,160.87871528288136L89.1906269791007,154.53426153779662L92.9069031032299,151.0310250381356L96.62317922735909,149.52441527118646L100.33945535148828,147.27280828271188L104.05573147561748,147.12992443542373L107.77200759974667,147.098830020339L111.48828372387588,145.82922741288138L115.20455984800506,139.5043689718644L118.92083597213426,130.93022795474576L122.63711209626345,128.50715178305086L126.35338822039266,126.57188640745763L130.06966434452187,125.73992273542373L133.78594046865103,125.71111675118645L137.50221659278023,125.42241562576272L141.21849271690942,113.62554270559323L144.93476884103865,109.83013865372884L148.65104496516784,109.04756266084749L152.36732108929704,107.6300764066102L156.0835972134262,106.91037017440681L159.7998733375554,106.8152091483051L163.5161494616846,105.9885113583051L167.23242558581381,93.35643644338984L170.948701709943,90.57680868830509L174.6649778340722,86.81526145898306L178.3812539582014,85.34729227915253L182.09753008233056,83.6164018877966L185.8138062064598,83.34208996169494L189.53008233058898,81.57364595762712L193.24635845471818,70.31867523169493L196.96263457884737,67.87598474118641L200.67891070297657,65.20936996508473L204.39518682710576,63.06442911915252L208.11146295123496,60.33949474033898L211.82773907536415,60.33546390576271L215.54401519949334,57.94725602593218L219.26029132362254,37.56300228661016L222.97656744775176,34.66771555118643L226.69284357188096,32.14054661932201L230.40911969601012,31.525457492203373L234.12539582013932,30.85291970186438L237.8416719442685,30.758350676440642L241.7127929069031,30.260241985254197"></path><path class="dem-cumulative" d="M0,183.95748338627118L3.7162761241291955,183.9568535018644L7.432552248258391,183.88062587135593L11.148828372387587,183.34120229186442L14.865104496516782,180.7912793123729L18.58138062064598,180.07893177949154L22.297656744775175,179.8665025527119L26.01393286890437,179.82920096372882L29.730208993033564,179.81591419694917L33.44648511716276,179.7498694838983L37.16276124129196,176.39306092067798L40.87903736542115,174.36565010898306L44.59531348955035,173.58923539661018L48.311589613679544,173.16356261050848L52.02786573780874,172.91364091847458L55.74414186193794,172.57316422186443L59.46041798606713,172.55943491949154L63.17669411019633,168.7135721823729L66.89297023432552,167.35321905881358L70.60924635845471,167.05329722186443L74.32552248258392,166.42846793152543L78.0417986067131,166.26979507457628L81.7580747308423,166.2510387223729L85.4743508549715,165.25304710169493L89.1906269791007,157.42575836983053L92.9069031032299,155.97470544101697L96.62317922735909,155.47741472644068L100.33945535148828,154.85331937322036L104.05573147561748,154.41678118677967L107.77200759974667,154.39767267186443L111.48828372387588,153.6526990201695L115.20455984800506,142.35498188491528L118.92083597213426,139.49232550271188L122.63711209626345,138.58066904152543L126.35338822039266,138.53347727762713L130.06966434452187,138.24758569932206L133.78594046865103,138.20768304033902L137.50221659278023,137.9706891088136L141.21849271690942,124.00665888254238L144.93476884103865,120.2369396562712L148.65104496516784,119.75086281694917L152.36732108929704,117.11116108491527L156.0835972134262,115.25610273474577L159.7998733375554,115.07070897813561L163.5161494616846,113.21137163966104L167.23242558581381,96.5490666264407L170.948701709943,92.29153927152542L174.6649778340722,91.18520214694918L178.3812539582014,89.36197647813562L182.09753008233056,88.79458212016951L185.8138062064598,88.71247993898305L189.53008233058898,86.87515207762712L193.24635845471818,69.29576318694916L196.96263457884737,65.61148638915253L200.67891070297657,60.46611292661018L204.39518682710576,55.916765321016925L208.11146295123496,54.13746081423727L211.82773907536415,54.08273518067796L215.54401519949334,51.63807918932201L219.26029132362254,31.91801995762711L222.97656744775176,27.56889643694913L226.69284357188096,24.81202211728811L230.40911969601012,23.07319982203387L234.12539582013932,22.033470360677967L237.8416719442685,21.67896303372879L241.7127929069031,21.637899228983002"></path></g><mask id="mask-S" width="244.5" height="215" x="0" y="0"></mask><text class="last-week" transform="translate(218.48606713109564, 193.5)" dy="10"><tspan x="0" dy="0" dx="3" style="text-anchor: start;">Last</tspan><tspan x="0" dy="15" dx="3" style="text-anchor: start;">week</tspan></text><circle class="rep" r="3" cx="241.7127929069031" cy="30.260241985254197"></circle><circle class="dem" r="3" cx="241.7127929069031" cy="21.637899228983002"></circle><text class="rep" dx="5" transform="translate(241.7127929069031, 30.260241985254197)" dy="10">$253M R</text><text class="dem" dx="5" transform="translate(241.7127929069031, 21.637899228983002)" dy="-3">$265M D</text><text transform="translate(10, 0)" class="total-spending-annotation"><tspan x="0" dy="0">Total spending</tspan><tspan x="0" dy="15">since January</tspan><tspan x="0" dy="15">2017</tspan></text><path d="M100 -5 C 130.5625 -5, 181.96263457884737 11.861486389152532, 196.96263457884737 45.61148638915253" class="total-spending-annotation"></path><rect width="244.5" height="240" style="opacity: 0;"></rect></g></svg>